<svg width="20" height="20" xmlns="http://www.w3.org/2000/svg">
 <g>
  <title>background</title>
  <rect x="-1" y="-1" width="2.767754" height="2.767754" id="canvas_background" fill="none"/>
 </g>

 <g>
  <title>Layer 1</title>
  <path id="path4133" d="m10,0.093749c-2.937198,0 -6.36405,1.963419 -6.36405,6.961188c0,3.39124 4.895451,10.887894 6.36405,12.851313c1.305462,-1.963419 6.364051,-9.281496 6.364051,-12.851313c0,-4.997769 -3.426852,-6.961188 -6.364051,-6.961188z" fill="#0099cc" stroke="null"/>
  <g stroke="null" id="svg_40">
   <path fill="#444444" stroke="null" id="svg_38" d="m10.027648,19.981201l-0.486128,-0.660531c-1.182506,-1.586608 -5.955065,-8.74836 -5.955065,-12.22315a6.156808,6.760096 0 0 1 5.877284,-7.053665q0.269801,-0.013344 0.540817,0a6.156808,6.760096 0 0 1 6.424178,6.453183q0.012153,0.300241 0,0.600482c0,2.953038 -3.243687,8.154549 -5.685264,11.810819l-0.715823,1.072862l0.000001,0zm-0.023091,-18.621623a4.954857,5.440369 0 0 0 -5.225874,5.737942c0,2.44463 3.353066,8.057138 5.208859,10.72061c1.51915,-2.281833 5.244104,-7.991752 5.244104,-10.72061a4.954857,5.440369 0 0 0 -5.225874,-5.737942l-0.001215,0z"/>
  </g>
 </g>
</svg>