<?xml version="1.0" encoding="UTF-8" standalone="no"?>
<svg
   xmlns:dc="http://purl.org/dc/elements/1.1/"
   xmlns:cc="http://creativecommons.org/ns#"
   xmlns:rdf="http://www.w3.org/1999/02/22-rdf-syntax-ns#"
   xmlns:svg="http://www.w3.org/2000/svg"
   xmlns="http://www.w3.org/2000/svg"
   id="svg8"
   version="1.1"
   viewBox="0 0 169.33333 169.33332"
   height="256"
   width="256">
  <defs
     id="defs2" />
  <metadata
     id="metadata5">
    <rdf:RDF>
      <cc:Work
         rdf:about="">
        <dc:format>image/svg+xml</dc:format>
        <dc:type
           rdf:resource="http://purl.org/dc/dcmitype/StillImage" />
        <dc:title></dc:title>
      </cc:Work>
    </rdf:RDF>
  </metadata>
  <g
     transform="translate(-18.142853,-70.214272)"
     id="layer1">
    <path
       style="fill:#f2f2f2;stroke-width:0.25705054"
       d="m 187.75967,155.06995 a 84.808411,84.477669 0 0 1 -84.6345,84.47749 84.808411,84.477669 0 0 1 -84.981604,-84.13103 84.808411,84.477669 0 0 1 84.285974,-84.822534 84.808411,84.477669 0 0 1 85.32728,83.783154"
       id="path3688" />
    <g
       id="flowRoot3690"
       style="font-style:normal;font-weight:normal;font-size:266.66665649px;line-height:1.25;font-family:sans-serif;letter-spacing:0px;word-spacing:0px;fill:#000000;fill-opacity:1;stroke:none"
       transform="matrix(0.43915608,0,0,0.50715314,-37.01884,-125.98566)"
       aria-label="kg ">
      <path
         id="path3714"
         style="font-size:266.66665649px"
         d="m 221.04622,590.805 q -4.03646,16.53646 -8.59375,26.43229 h -25.52083 l -11.97917,-15.88541 q 2.86459,-6.25 11.19792,-16.92708 8.46354,-10.67709 20.18229,-22.65625 0.39063,-4.81771 0.39063,-10.9375 0,-11.06771 -0.26042,-17.31771 -0.26042,-6.25 -1.17188,-12.5 -0.78125,-6.38021 -2.47395,-9.76563 -1.5625,-3.51562 -3.51563,-4.8177 -1.95312,-1.30209 -4.16667,-1.30209 -4.03645,0 -8.07291,1.5625 -3.90625,1.5625 -8.85417,5.20834 l -7.94271,-10.80729 q 9.11459,-8.07292 16.79688,-11.58855 7.68229,-3.51562 15.88541,-3.51562 22.52605,0 22.52605,35.15625 0,14.32291 -1.82292,28.51562 l 0.39062,0.78125 46.35417,-37.23958 q 1.5625,-6.77083 2.99479,-11.84896 1.5625,-5.20833 4.81771,-13.28125 h 24.86979 l 12.5,15.36458 q -2.99479,7.03125 -12.10938,18.22917 -9.11458,11.06771 -19.92187,20.57292 -0.39063,3.125 -0.39063,17.1875 0,16.40625 1.30209,25.26041 1.43229,8.85417 3.90625,12.23958 2.60416,3.25521 6.77083,3.25521 7.68229,0 16.53646,-6.77083 l 7.94271,10.80729 q -8.33334,7.42188 -16.40625,11.32813 -7.94271,3.77604 -16.14584,3.77604 -11.45833,0 -17.05729,-8.72396 -5.59895,-8.72396 -5.59895,-26.69271 0,-17.83854 1.6927,-29.55729 l -0.65104,-0.78125 z" />
      <path
         id="path3716"
         style="font-size:266.66665649px"
         d="m 400.73371,581.95084 q 16.53646,-41.14583 29.03646,-93.88021 h 37.6302 v 9.375 q -7.81249,11.58854 -26.30208,44.66146 -18.35937,33.07291 -37.10937,69.14062 2.60417,21.61458 2.60417,30.20833 0,13.67188 -0.39063,16.01563 l -17.05729,11.97916 h -23.82812 v -8.20312 q 0,-21.61458 9.24479,-43.48958 -2.47396,-17.96875 -6.25,-37.63021 -3.77604,-19.79167 -7.68229,-34.11458 -3.90625,-14.32292 -6.38021,-20.96354 -2.47396,-6.77084 -4.81771,-10.67709 -2.21354,-4.03645 -4.6875,-5.72916 -2.34375,-1.82292 -5.85938,-1.82292 -3.77604,0 -6.90104,1.43229 -3.125,1.30209 -6.51041,3.64584 l -7.55209,-11.06771 q 5.20834,-3.64583 8.98438,-6.11979 3.90625,-2.60417 8.33333,-4.55729 4.42708,-1.95313 9.63542,-2.9948 5.33854,-1.17187 12.10937,-1.17187 10.41667,0 17.57813,4.29687 7.29166,4.29688 11.71875,13.15104 4.55729,8.85417 7.8125,29.81771 3.38541,20.96354 5.33854,48.69792 z" />
    </g>
  </g>
</svg>
