<?xml version="1.0" encoding="UTF-8" standalone="no"?>
<!-- Generator: Adobe Illustrator 16.0.3, SVG Export Plug-In . SVG Version: 6.00 Build 0)  -->

<svg
   xmlns:dc="http://purl.org/dc/elements/1.1/"
   xmlns:cc="http://creativecommons.org/ns#"
   xmlns:rdf="http://www.w3.org/1999/02/22-rdf-syntax-ns#"
   xmlns:svg="http://www.w3.org/2000/svg"
   xmlns="http://www.w3.org/2000/svg"
   xmlns:sodipodi="http://sodipodi.sourceforge.net/DTD/sodipodi-0.dtd"
   xmlns:inkscape="http://www.inkscape.org/namespaces/inkscape"
   version="1.1"
   x="0px"
   y="0px"
   width="123"
   height="123"
   viewBox="0 0 123 123"
   enable-background="new 0 0 595 842"
   xml:space="preserve"
   id="svg833"
   sodipodi:docname="tuwien_logo.svg"
   inkscape:version="0.92.2 (5c3e80d, 2017-08-06)"><metadata
     id="metadata839"><rdf:RDF><cc:Work
         rdf:about=""><dc:format>image/svg+xml</dc:format><dc:type
           rdf:resource="http://purl.org/dc/dcmitype/StillImage" /><dc:title></dc:title></cc:Work></rdf:RDF></metadata><defs
     id="defs837" /><sodipodi:namedview
     pagecolor="#ffffff"
     bordercolor="#666666"
     borderopacity="1"
     objecttolerance="10"
     gridtolerance="10"
     guidetolerance="10"
     inkscape:pageopacity="0"
     inkscape:pageshadow="2"
     inkscape:window-width="1920"
     inkscape:window-height="1057"
     id="namedview835"
     showgrid="false"
     inkscape:zoom="2.9896676"
     inkscape:cx="5.4682508"
     inkscape:cy="25.616747"
     inkscape:window-x="-8"
     inkscape:window-y="-8"
     inkscape:window-maximized="1"
     inkscape:current-layer="svg833" /><g
     id="Vordergrund"
     transform="matrix(1.0028945,0,0,1.0028945,-89.268645,-360.84546)"><path
       d="m 177.589,419.863 c 0.2,-0.036 0.348,-0.06 0.542,-0.106 4.935,-1.252 8.611,-6.007 8.611,-11.294 l -0.113,-36.151 H 200 v 36.341 c 0.013,12.629 -9.578,23.132 -21.869,24.431 l -0.54,0.056 z m -3.977,13.278 -0.694,-0.059 c -12.289,-1.283 -21.792,-11.667 -21.792,-24.295 v -36.475 h 13.285 l -0.021,36.151 c 0,5.287 3.676,10.042 8.609,11.294 0.217,0.052 0.385,0.087 0.607,0.126 z M 98.451,372.312 h 45.851 V 385.42 H 98.451 Z m 16.591,60.292 v -43.56 h 13.108 v 43.56 z m 10.95,16.782 h -4.4 l -3.368,13.625 -3.945,-13.625 h -3.156 l -3.945,13.625 -3.338,-13.625 h -4.4 l 5.766,21.606 h 3.52 l 3.975,-13.11 3.976,13.11 h 3.52 z M 200,470.992 v -21.606 h -4.219 v 13.23 l -8.557,-13.23 h -3.763 v 21.606 h 4.218 V 457.73 l 8.558,13.262 z m -29.924,0 v -3.764 h -10.014 v -5.25 h 8.527 v -3.763 h -8.527 v -5.067 h 10.014 v -3.763 h -14.232 v 21.606 h 14.232 z m -28.681,0 v -21.606 h -4.218 v 21.606 z m -39.99,-111.188 h 97.858 c 6.845,0 12.393,5.548 12.393,12.393 v 97.858 c 0,6.845 -5.548,12.394 -12.393,12.394 h -97.858 c -6.845,0 -12.394,-5.549 -12.394,-12.394 v -97.858 c 0.001,-6.844 5.55,-12.393 12.394,-12.393 z"
       id="path830"
       inkscape:connector-curvature="0"
       style="clip-rule:evenodd;fill-rule:evenodd" /></g><g
     id="Hintergrund"
     transform="translate(0,-719)" /><g
     id="Hilfslinien_anzeigen"
     display="none"
     style="display:none"
     transform="translate(0,-719)" /></svg>
