<svg width="auto" height="50" viewBox="0 0 50 50" xmlns="http://www.w3.org/2000/svg">
 <!-- Created with Method Draw - http://github.com/duopixel/Method-Draw/ -->

 <g>
  <title>background</title>
 </g>
 <g>
  <title>Layer 1</title>
  <g stroke="null" id="svg_36">
   <path stroke="null" id="svg_34" fill="#333333" d="m0.115765,18.044645c-0.003052,0.044759 -0.006108,0.089598 -0.006108,0.089598c0,0 -0.00313,0.044754 -0.00313,0.044754c-0.003056,0.044844 -0.006186,0.089598 0.027718,0.138125c0,0 0,0 0,0c0,0 0,0 0,0c-0.003134,0.044844 0.030769,0.093371 0.064595,0.141897c0,0 0,0 0,0l21.866722,31.359282c0,0 0,0 0,0c0,0 0,0 0,0c0.033821,0.048527 0.033821,0.048527 0.070776,0.052304c0,0 0.03696,0.003682 0.03696,0.003682c0.036955,0.003773 0.036955,0.003773 0.070781,0.052304c0,0 0,0 0,0c0,0 0,0 0.036955,0.003773c0.036877,0.003773 0.036877,0.003773 0.073833,0.00746c0,0 0.036955,0.003773 0.036955,0.003773c0,0 0,0 0.036955,0.003773c0,0 0.036882,0.003687 0.036882,0.003687c0,0 0.036955,0.003773 0.036955,0.003773c0.036955,0.003773 0.040007,-0.041072 0.076967,-0.037294c0,0 0,0 0,0c0.040007,-0.041072 0.040007,-0.041072 0.080019,-0.082138c0,0 0,0 0,0l27.180818,-45.787383c0,0 0,0 0,0c0.040012,-0.041067 0.043141,-0.085821 0.046198,-0.130665c0,0 0.00313,-0.044839 0.00313,-0.044839c0.003056,-0.044754 0.006108,-0.089598 0.009242,-0.134352c0,0 0.003052,-0.044844 0.003052,-0.044844c0,0 0.00313,-0.044754 0.00313,-0.044754c0.003056,-0.044839 -0.033899,-0.048527 -0.033899,-0.048527c0,0 0.00313,-0.044844 0.00313,-0.044844c-0.033904,-0.048527 -0.067725,-0.097053 -0.104685,-0.100826c0,0 0,0 0,0c0,0 0,0 -0.036877,-0.003773c-0.036955,-0.003687 -0.070781,-0.052214 -0.107736,-0.055986c0,0 -0.036955,-0.003778 -0.036955,-0.003778c0,0 -0.036955,-0.003682 -0.036955,-0.003682l-31.801366,-3.222842c0,0 0,0 0,0c-0.036955,-0.003773 -0.036955,-0.003773 -0.073911,-0.007545c0,0 -0.036877,-0.003687 -0.036877,-0.003687c-0.03696,-0.003773 -0.03696,-0.003773 -0.076967,0.037299c-0.036955,-0.003778 -0.040012,0.041067 -0.076967,0.037294c0,0 -0.036955,-0.003687 -0.040012,0.041067l-17.212353,17.699556c-0.070781,-0.052304 -0.073833,-0.00755 -0.116974,0.078361c0.00313,-0.044839 0,0 0,0zm36.078653,8.522633l11.207833,-20.061532l-23.436891,39.49001l12.229058,-19.428478zm-13.694464,21.264896l-1.774685,-18.901864l-0.778347,-8.289472l11.745494,1.190291l-9.192462,26.001045zm-0.692616,0.335833l-20.478907,-29.368939l17.876704,1.811669l2.602203,27.55727zm10.316184,-27.195461l-12.262571,-1.242676l-1.760433,-18.720042l30.471804,3.088138l-16.4488,16.87458zm-14.721728,-19.537287l1.720422,18.219756l-0.324698,-5.798059l-1.395724,-12.421698z" class="st0"/>
   <path stroke="null" id="svg_35" fill=" rgb(48, 62, 92)" d="m465.169439,322.879685"/>
   <path stroke="null" transform="rotate(0.08503749221563339 16.257385253909856,33.6405525207527) " id="svg_38" d="m0.807335,18.586766c0,0 30.900103,3.270471 30.900103,3.270471c0,0 -9.466506,26.837103 -9.466506,26.837103" stroke-opacity="null" stroke-width="null" fill="#e5e5e5"/>
  </g>
 </g>
</svg>